<svg version="1.2" xmlns="http://www.w3.org/2000/svg" viewBox="0 0 1024 480" width="1024" height="480">
	<title>nblock games logo-svg</title>
	<defs>
		<filter x="-50%" y="-50%" width="200%" height="200%" id="f1" ><feDropShadow dx="0" dy="0" stdDeviation="9.166666666666668" flood-color="#000000" flood-opacity=".8"/></filter>
		<filter x="-50%" y="-50%" width="200%" height="200%" id="f2" ><feDropShadow dx="0" dy="0" stdDeviation="9.166666666666668" flood-color="#000000" flood-opacity=".8"/></filter>
		<filter x="-50%" y="-50%" width="200%" height="200%" id="f3" ><feDropShadow dx="0" dy="0" stdDeviation="9.166666666666668" flood-color="#000000" flood-opacity=".8"/></filter>
		<filter x="-50%" y="-50%" width="200%" height="200%" id="f4" ><feDropShadow dx="0" dy="0" stdDeviation="9.166666666666668" flood-color="#000000" flood-opacity=".8"/></filter>
		<filter x="-50%" y="-50%" width="200%" height="200%" id="f5" ><feDropShadow dx="0" dy="0" stdDeviation="9.166666666666668" flood-color="#000000" flood-opacity=".8"/></filter>
		<filter x="-50%" y="-50%" width="200%" height="200%" id="f6" ><feDropShadow dx="0" dy="0" stdDeviation="9.166666666666668" flood-color="#000000" flood-opacity=".8"/></filter>
		<filter x="-50%" y="-50%" width="200%" height="200%" id="f7" ><feDropShadow dx="0" dy="0" stdDeviation="9.166666666666668" flood-color="#000000" flood-opacity=".8"/></filter>
		<filter x="-50%" y="-50%" width="200%" height="200%" id="f8" ><feDropShadow dx="0" dy="0" stdDeviation="9.166666666666668" flood-color="#000000" flood-opacity=".8"/></filter>
		<filter x="-50%" y="-50%" width="200%" height="200%" id="f9" ><feDropShadow dx="0" dy="0" stdDeviation="9.166666666666668" flood-color="#000000" flood-opacity=".8"/></filter>
		<filter x="-50%" y="-50%" width="200%" height="200%" id="f10" ><feDropShadow dx="0" dy="0" stdDeviation="9.166666666666668" flood-color="#000000" flood-opacity=".8"/></filter>
		<filter x="-50%" y="-50%" width="200%" height="200%" id="f11" ><feDropShadow dx="0" dy="0" stdDeviation="9.166666666666668" flood-color="#000000" flood-opacity=".8"/></filter>
	</defs>
	<style>
		.s0 { filter: url(#f1);fill: #239ed7;stroke: #000000;paint-order:stroke fill markers;stroke-linejoin: round;stroke-width: 6 } 
		.s1 { filter: url(#f2);fill: #398cb6;stroke: #000000;paint-order:stroke fill markers;stroke-linejoin: round;stroke-width: 6 } 
		.s2 { filter: url(#f3);fill: #527791;stroke: #000000;paint-order:stroke fill markers;stroke-linejoin: round;stroke-width: 6 } 
		.s3 { filter: url(#f4);fill: #5e6c6c;stroke: #000000;paint-order:stroke fill markers;stroke-linejoin: round;stroke-width: 6 } 
		.s4 { filter: url(#f5);fill: #567958;stroke: #000000;paint-order:stroke fill markers;stroke-linejoin: round;stroke-width: 6 } 
		.s5 { filter: url(#f6);fill: #4f8642;stroke: #000000;paint-order:stroke fill markers;stroke-linejoin: round;stroke-width: 6 } 
		.s6 { filter: url(#f7);fill: #4f8642;stroke: #000000;paint-order:stroke fill markers;stroke-linejoin: round;stroke-width: 6 } 
		.s7 { filter: url(#f8);fill: #58775b;stroke: #000000;paint-order:stroke fill markers;stroke-linejoin: round;stroke-width: 6 } 
		.s8 { filter: url(#f9);fill: #5e6c6d;stroke: #000000;paint-order:stroke fill markers;stroke-linejoin: round;stroke-width: 6 } 
		.s9 { filter: url(#f10);fill: #3e87a7;stroke: #000000;paint-order:stroke fill markers;stroke-linejoin: round;stroke-width: 6 } 
		.s10 { filter: url(#f11);fill: #239ed7;stroke: #000000;paint-order:stroke fill markers;stroke-linejoin: round;stroke-width: 6 } 
	</style>
	<g id="title">
		<path id="path304467" class="s0" d="m94.4 218.5c-2.9-5.1-6.8-9.2-11.7-11.9-4.7-2.5-9.9-3.8-15.6-4-0.1 0-0.4-0.1-0.4-0.1h-31.1c-1.9-0.1-3.4 0.6-4.7 1.8-1.3 1.4-1.9 2.9-1.9 4.6 0 0.2 0 0.5 0 0.6 0 0.3 0 0.4 0 0.5v60.5c0 2 0.5 3.7 1.9 5 1.3 1.4 2.9 1.9 5 1.9 2 0 3.6-0.5 5-1.9 1.2-1.3 1.9-3 1.9-5v-38.2c0-3.3 0.9-6.1 2.6-8.8 1.8-2.6 4.2-4.6 7.3-6.3 3.2-1.4 6.7-2.2 10.5-2.2 6.5 0 11.6 1.9 15.6 5.7 3.9 3.8 5.9 9.3 5.9 16.5v33.4c0 2 0.5 3.6 1.9 5 1.3 1.3 2.9 1.9 5 1.9 1.9 0 3.5-0.6 4.9-1.9 1.3-1.4 2-3 2-5v-33.4c0.1-7.3-1.4-13.5-4.1-18.7z"/>
		<path id="path304469" fill-rule="evenodd" class="s1" d="m196.1 240.3c0 7.2-1.7 13.6-4.9 19.3-3.4 5.7-7.9 10.3-13.6 13.5-5.7 3.3-12.1 4.9-19 4.9l-30.7-0.1c-1.9 0-3.4-0.5-4.6-1.9-1.4-1.2-1.9-2.7-1.9-4.4l0.1-93.2c0-2 0.5-3.6 1.9-5 1.2-1.2 2.8-1.9 5-1.9 1.9 0 3.5 0.7 4.9 1.9 1.3 1.4 2 3 2 5v36.6c3.1-3.7 6.9-6.9 11.5-9q6.7-3.3 14.6-3.3c6.5 0.1 12.4 1.7 17.6 4.9 5.3 3.4 9.5 7.9 12.5 13.6 3 5.7 4.6 12.2 4.6 19.1zm-13.3 0c0-4.7-1.1-9.1-3.2-12.9-2.2-3.8-5-6.9-8.7-9.1-3.7-2.1-7.7-3.4-12.2-3.4-4.6 0-8.7 1.2-12.3 3.4-3.7 2.2-6.5 5.3-8.6 9.1-2.2 3.8-3.1 8.1-3.1 12.9 0 4.8 0.9 9.2 3.1 13 2 3.9 4.9 7 8.5 9.2 3.7 2.2 7.7 3.3 12.3 3.3q6.8 0 12.2-3.3c3.7-2.1 6.6-5.2 8.7-9.2q3.3-5.7 3.3-13z"/>
		<path id="path304471" class="s2" d="m216 173.5c-1.4 1.4-1.9 3-1.9 4.9l-0.1 74c0 4.9 0.8 9.2 2.5 13q2.5 5.7 7.2 9c3.1 2.2 6.7 3.1 10.6 3.1h0.3c2.7 0 4.8-0.5 6.6-1.9 1.6-1.2 2.6-2.8 2.6-4.8 0-1.9-0.7-3.6-1.8-4.9-1.1-1.2-2.6-1.9-4.3-1.9h-3.4q-3.1 0-4.9-3.3c-1.3-2.2-1.9-4.9-1.9-8.3l0.1-74c0-1.9-0.6-3.5-1.9-4.9-1.3-1.2-2.9-1.9-4.8-1.9-2.1 0-3.7 0.7-4.9 1.9z"/>
		<path id="path304473" fill-rule="evenodd" class="s3" d="m319.5 221.1q4.9 8.5 4.9 19.5c0 7.3-1.6 13.7-4.8 19.4-3.2 5.7-7.6 10.2-13.3 13.4-5.7 3.3-12 4.7-19.2 4.7-7.3 0-13.7-1.5-19.4-4.7-5.7-3.3-10.2-7.8-13.3-13.5-3.2-5.7-4.7-12-4.7-19.4 0-7.3 1.5-13.8 4.8-19.5 3.1-5.7 7.6-10 13.3-13.2 5.7-3.3 12-4.9 19.4-4.9q10.5 0 19.1 4.9c5.7 3.3 10 7.6 13.2 13.3zm-53.4 6.3c-2.1 3.9-3.1 8.3-3.1 13.2 0 4.8 0.9 9.3 3.1 13.1q3 5.7 8.5 9c3.7 2.1 7.9 3.2 12.5 3.2 4.6 0 8.7-1 12.3-3.2q5.5-3.3 8.6-8.9c2-3.8 3.1-8.3 3.1-13.2 0-4.9-1.1-9.2-3.1-13.1-2-3.8-4.9-7-8.5-9.1-3.7-2.2-7.7-3.3-12.3-3.3-4.7 0-8.9 1.1-12.5 3.2-3.7 2.2-6.5 5.3-8.6 9.1z"/>
		<path id="path304475" class="s4" d="m404.6 215.2c-7-8.1-15.9-12.2-26.5-12.2-7.1 0-13.4 1.6-19 4.9-5.7 3.2-10 7.7-13.2 13.4-3.1 5.7-4.6 12.2-4.6 19.3 0 7.1 1.5 13.6 4.7 19.3q4.9 8.5 13.4 13.4c5.7 3.3 12.1 4.9 19.3 4.9 9.7 0.1 17.9-2.9 24.4-9q1.6-1.6 1.6-3.7c0-1.7-0.9-3.4-2.5-4.8-1.1-0.9-2.4-1.3-3.6-1.3-1.6 0-3.4 0.7-5 1.9-3.8 3.3-8.8 4.8-14.9 4.7q-7.1 0-12.6-3.2-5.5-3.3-8.5-9c-2.1-3.8-3-8.3-3-13.1 0-7.6 2.2-13.9 6.5-18.5 4.4-4.6 9.9-7 17-7 3.4 0 6.3 0.7 9.1 1.8 2.7 1.1 5.1 2.8 7.4 5.3q2 2.4 5.3 2.4c1.1 0 2.2-0.2 3.1-0.9 1.9-1.4 3-3 3-5 0-1.4-0.5-2.5-1.4-3.6z"/>
		<path id="path304477" class="s5" d="m484.1 272.1c0-1.6-0.6-2.9-1.5-4l-26.3-32.3 25-22.2c1.4-1.1 2.2-2.7 2.2-4.6 0-1.7-0.7-3-1.8-4.2-1.2-1.4-2.7-2.2-4.6-2.2-1.6 0-3.1 0.7-4.2 1.7l-33 29.4 0.1-55.1c0-1.9-0.7-3.6-1.9-4.8-1.2-1.2-2.8-1.9-4.7-1.9-2.1 0-3.7 0.7-4.9 1.9-1.2 1.2-1.8 2.8-1.8 4.7l-0.1 92.6c0 2.1 0.6 3.7 1.8 4.9q1.8 1.8 4.8 1.8c1.9 0 3.6-0.6 4.8-1.8 1.2-1.2 1.9-2.8 1.9-4.9v-20.7l6.8-6 25.7 31.9q1.9 2.5 4.9 2.5c1.5 0 3-0.6 4.3-1.6 1.7-1.4 2.5-3 2.5-5.1z"/>
		<path id="path304479" fill-rule="evenodd" class="s6" d="m609.4 221.5q4.9 8.5 4.9 19.5v29.3c0 7.2-1.7 13.7-4.8 19.5-3.3 5.9-7.7 10.5-13.4 13.9-5.7 3.4-12.2 5-19.4 5-6.5 0-12.6-1.2-18.2-3.8-5.7-2.6-10.3-6.2-14.1-11.1-1.1-1.3-1.5-2.5-1.5-3.8q0-2.9 2.9-4.9c1.2-0.8 2.4-1.2 3.8-1.2 2.2 0 4.1 0.9 5.5 2.8 2.5 3.3 5.5 5.7 9.3 7.4q5.4 2.4 12.6 2.4c4.3 0 8.4-0.9 12-3.1 3.5-2.1 6.5-5.3 8.7-9.3 2.2-4.1 3.3-9.1 3.3-14.8v-6.6c-2.9 5-6.5 8.9-11.1 11.6q-7.1 4.2-15.6 4.2c-6.8 0-12.8-1.5-18.1-4.8-5.2-3.2-9.3-7.7-12.3-13.4-3-5.7-4.3-12.1-4.3-19.4 0-7.3 1.5-13.8 4.8-19.5 3.1-5.7 7.6-10 13.3-13.3 5.7-3.2 12-4.9 19.4-4.8q10.5 0 19.1 4.9c5.7 3.2 10 7.6 13.2 13.3zm-11.5 32.6c2-3.8 3.1-8.2 3.1-13.1 0-4.9-1.1-9.2-3.1-13.2-2-3.8-4.9-6.9-8.5-9.1-3.7-2.1-7.7-3.2-12.3-3.2-4.7 0-8.9 1-12.5 3.2-3.7 2.2-6.5 5.3-8.6 9.1-2.1 3.9-3.1 8.2-3.1 13.1 0 4.9 0.9 9.4 3.1 13.2q3 5.7 8.5 8.9c3.7 2.2 7.9 3.3 12.5 3.3 4.6 0 8.7-1.1 12.3-3.2q5.5-3.3 8.6-9z"/>
		<path id="path304481" fill-rule="evenodd" class="s7" d="m705.9 272.3c0 1.9-0.7 3.4-1.9 4.6-1.4 1.2-2.9 1.9-4.7 1.9l-33.4-0.1c-6.5 0-12.4-1.6-17.8-5-5.3-3.3-9.5-7.7-12.4-13.4-3-5.7-4.5-12.2-4.5-19.3q0-10.6 4.9-19.1c3.3-5.7 7.8-10.3 13.5-13.5 5.7-3.3 12-5 19.1-5 6.9 0 13.1 1.8 18.8 5 5.7 3.3 10.2 7.9 13.4 13.6 3.3 5.7 5 12.2 5 19.1zm-49.6-9.1c3.7 2.1 7.7 3.2 12.3 3.2q6.7 0 12.2-3.2c3.7-2.2 6.5-5.3 8.7-9.1 2.1-3.8 3.2-8.1 3.2-13 0-4.7-1.1-9.1-3.1-13-2.2-3.8-5.1-6.9-8.7-9.1-3.7-2.2-7.7-3.4-12.2-3.4-4.6 0-8.7 1.2-12.3 3.4-3.7 2.1-6.6 5.2-8.7 9-2.2 4-3.2 8.3-3.2 13 0 4.9 1 9.3 3.1 13.1 2.2 3.8 5 6.9 8.7 9.1z"/>
		<path id="path304483" class="s8" d="m823.6 211.2c-4.9-5.2-11.3-7.8-19-7.8-28.1 0-42.7 0-44.1-0.1h-1-26.3c-1.8 0-3.4 0.7-4.6 1.9-1.4 1.4-1.9 2.9-1.9 4.6 0 0.1-0.1 0.4-0.1 0.7 0 0.3 0 0.4 0 0.5v60.4c0 2 0.5 3.6 1.9 5 1.3 1.3 2.9 1.9 5 1.9 2 0 3.6-0.6 5-1.9 1.2-1.4 1.9-3 1.9-5v-38.3c0.1-5 1.6-9 4.5-12.4q4.5-4.9 11.8-4.9c4.6 0 8.3 1.5 11 4.4 2.7 2.8 4.2 7 4.2 12.4l-0.1 38.8c0 2 0.6 3.7 1.9 5 1.4 1.4 3 1.9 5.1 1.9 2 0 3.6-0.5 5-1.9 1.2-1.3 1.9-2.9 1.9-5v-38.2c0-5 1.5-9.1 4.5-12.5q4.5-4.8 11.7-4.8c4.6 0 8.2 1.5 10.9 4.3 2.8 2.9 4.2 7.1 4.2 12.5v38.8c0 2 0.5 3.6 1.9 5 1.3 1.3 3 1.9 5 1.9 2 0 3.7-0.5 5-1.9 1.2-1.4 1.9-3 1.9-5l0.1-38.8q0-13.8-7.3-21.5z"/>
		<path id="path304485" fill-rule="evenodd" class="s9" d="m914 246.1l-51.5-0.1c0.9 6.4 3.8 11.6 8.5 15.4 4.8 3.9 10.6 5.8 17.5 5.8 2.7 0 5.4-0.4 8.4-1.5q4.5-1.4 7.3-3.6 1.8-1.5 4.5-1.5c1.6 0 3 0.5 4.1 1.4 1.6 1.3 2.4 2.9 2.4 4.6 0 1.6-0.8 3-2.2 4-3.1 2.5-6.9 4.5-11.5 6-4.6 1.6-9 2.3-13 2.3-7.5 0-14.1-1.5-19.9-4.8q-9-4.9-13.8-13.4c-3.3-5.7-4.9-12.1-4.9-19.4 0-7.2 1.5-13.7 4.6-19.4q4.7-8.5 13.1-13.4c5.5-3.2 11.9-4.9 18.9-4.9 7 0.1 12.9 1.7 18.1 4.7 5 3.1 8.9 7.4 11.6 12.9 2.7 5.5 4.1 11.9 4 18.9 0 1.8-0.6 3.3-1.7 4.4q-1.9 1.6-4.5 1.6zm-51.4-10.9l45.2 0.1c-0.8-6-3.1-10.9-6.8-14.6-3.8-3.5-8.5-5.4-14.5-5.4-6.6 0-12 1.9-16.1 5.4-4.1 3.7-6.7 8.5-7.8 14.5z"/>
		<path id="path304487" class="s10" d="m979.7 206.6c-4.6-1.9-9.9-2.9-15.7-2.9-4.9 0-9.4 0.8-13.6 2.3-4.3 1.6-7.7 3.9-10.3 6.9-2.7 3.1-4 6.9-4 11.3 0 11 8.7 18.1 26 21.4 6.7 1.4 11.4 2.9 14.3 4.8 2.7 1.9 4.2 4.2 4.2 6.9 0 3-1.5 5.3-4.4 6.9-2.8 1.8-6.8 2.6-11.9 2.6q-5.9 0-11-2.1c-3.5-1.3-6.1-3.1-7.7-5-1.6-1.6-3.4-2.4-5.2-2.4-1.5-0.1-3.1 0.6-4.7 1.8-1.9 1.4-2.7 3.2-2.7 5.3 0 1.7 0.5 3.1 1.7 4.2 3 3.2 7.3 5.6 12.8 7.5 5.4 1.9 11.1 2.9 17.3 2.9 6.1 0 11.4-1 15.7-2.9 4.4-1.8 7.8-4.6 10.1-7.9 2.2-3.4 3.4-7.2 3.4-11.4 0-5.6-2.2-10.2-6.2-13.7-4.1-3.6-11.1-6.3-20.9-8.3-4.9-1-8.5-1.9-11-3-2.6-1.1-4.3-2.2-5.1-3.4-1-1.2-1.4-2.7-1.4-4.6 0-2.5 1.2-4.5 4-5.8 2.7-1.4 6.1-2.2 10.3-2.2 3.5 0 6.6 0.6 9.2 1.4 2.4 0.8 4.9 2.3 7.2 4.3 1.9 1.8 3.9 2.6 6.3 2.6 1.5 0 2.7-0.3 3.8-1.1 1.5-1.2 2.3-2.6 2.3-4.2 0-1.3-0.6-2.8-1.7-4.3-2.7-3.3-6.5-6-11.1-7.9z"/>
	</g>
</svg>